<?xml version="1.0" standalone="no"?>
<!DOCTYPE svg PUBLIC "-//W3C//DTD SVG 20010904//EN"
 "http://www.w3.org/TR/2001/REC-SVG-20010904/DTD/svg10.dtd">
<svg version="1.0" xmlns="http://www.w3.org/2000/svg"
 width="263.000000pt" height="263.000000pt" viewBox="0 0 263.000000 263.000000"
 preserveAspectRatio="xMidYMid meet">
<metadata>
Created by potrace 1.11, written by Peter Selinger 2001-2013
</metadata>
<g transform="translate(0.000000,263.000000) scale(0.100000,-0.100000)"
fill="#000000" stroke="none">
<path d="M1039 2549 c-20 -4 -47 -10 -60 -13 -55 -10 -190 -61 -274 -103 -297
-148 -540 -420 -637 -713 -49 -145 -62 -226 -63 -375 0 -167 5 -206 44 -350
24 -86 86 -226 130 -291 17 -25 31 -47 31 -50 0 -13 124 -155 184 -212 135
-126 315 -232 497 -292 96 -32 102 -33 234 -55 76 -13 352 -14 401 -2 12 3 39
8 59 11 155 25 374 116 525 219 82 57 265 233 295 285 11 17 23 32 27 32 4 0
8 6 8 14 0 8 3 16 8 18 20 9 113 197 141 285 39 124 43 161 39 408 -4 231 -6
243 -32 320 -71 203 -162 351 -306 496 -182 184 -399 304 -654 363 -52 12
-123 16 -314 15 -136 -1 -263 -5 -283 -10z"/>
</g>
</svg>
